<mxfile host="app.diagrams.net" agent="Mozilla/5.0 (Macintosh; Intel Mac OS X 10.15; rv:136.0) Gecko/20100101 Firefox/136.0" version="26.1.1">
  <diagram name="SSO" id="oQwYz6SMOpdXj8zHZp0R">
    <mxGraphModel dx="984" dy="577" grid="1" gridSize="10" guides="1" tooltips="1" connect="1" arrows="1" fold="1" page="1" pageScale="1" pageWidth="850" pageHeight="1100" math="0" shadow="0">
      <root>
        <mxCell id="0" />
        <mxCell id="1" parent="0" />
        <mxCell id="lkgcbjKjhkeQdIZX4Fdf-6" value="" style="rounded=0;whiteSpace=wrap;html=1;dashed=1;strokeWidth=2;strokeColor=#AD004E;glass=0;" vertex="1" parent="1">
          <mxGeometry x="20" y="10" width="820" height="440" as="geometry" />
        </mxCell>
        <mxCell id="lkgcbjKjhkeQdIZX4Fdf-5" value="" style="sketch=0;points=[[0,0,0],[0.25,0,0],[0.5,0,0],[0.75,0,0],[1,0,0],[0,1,0],[0.25,1,0],[0.5,1,0],[0.75,1,0],[1,1,0],[0,0.25,0],[0,0.5,0],[0,0.75,0],[1,0.25,0],[1,0.5,0],[1,0.75,0]];outlineConnect=0;fontColor=#232F3E;fillColor=#DD344C;strokeColor=#ffffff;dashed=0;verticalLabelPosition=bottom;verticalAlign=top;align=center;html=1;fontSize=12;fontStyle=0;aspect=fixed;shape=mxgraph.aws4.resourceIcon;resIcon=mxgraph.aws4.organizations;" vertex="1" parent="1">
          <mxGeometry x="20" y="10" width="40" height="40" as="geometry" />
        </mxCell>
        <mxCell id="lkgcbjKjhkeQdIZX4Fdf-7" value="" style="sketch=0;outlineConnect=0;fontColor=#232F3E;gradientColor=none;fillColor=#E7157B;strokeColor=none;dashed=0;verticalLabelPosition=bottom;verticalAlign=top;align=center;html=1;fontSize=12;fontStyle=0;aspect=fixed;pointerEvents=1;shape=mxgraph.aws4.organizations_management_account2;" vertex="1" parent="1">
          <mxGeometry x="170" y="90" width="48" height="48" as="geometry" />
        </mxCell>
        <mxCell id="lkgcbjKjhkeQdIZX4Fdf-9" value="" style="rounded=0;whiteSpace=wrap;html=1;dashed=1;strokeColor=#007FFF;" vertex="1" parent="1">
          <mxGeometry x="70" y="190" width="180" height="160" as="geometry" />
        </mxCell>
        <mxCell id="lkgcbjKjhkeQdIZX4Fdf-8" value="" style="sketch=0;outlineConnect=0;fontColor=#232F3E;gradientColor=none;fillColor=#E7157B;strokeColor=none;dashed=0;verticalLabelPosition=bottom;verticalAlign=top;align=center;html=1;fontSize=12;fontStyle=0;aspect=fixed;pointerEvents=1;shape=mxgraph.aws4.organizations_organizational_unit2;" vertex="1" parent="1">
          <mxGeometry x="70" y="190" width="40" height="40" as="geometry" />
        </mxCell>
        <mxCell id="lkgcbjKjhkeQdIZX4Fdf-13" value="Dev-OU" style="text;html=1;align=center;verticalAlign=middle;whiteSpace=wrap;rounded=0;" vertex="1" parent="1">
          <mxGeometry x="110" y="200" width="60" height="30" as="geometry" />
        </mxCell>
        <mxCell id="lkgcbjKjhkeQdIZX4Fdf-18" value="" style="rounded=0;whiteSpace=wrap;html=1;dashed=1;strokeColor=#007FFF;" vertex="1" parent="1">
          <mxGeometry x="290" y="190" width="180" height="160" as="geometry" />
        </mxCell>
        <mxCell id="lkgcbjKjhkeQdIZX4Fdf-19" value="" style="sketch=0;outlineConnect=0;fontColor=#232F3E;gradientColor=none;fillColor=#E7157B;strokeColor=none;dashed=0;verticalLabelPosition=bottom;verticalAlign=top;align=center;html=1;fontSize=12;fontStyle=0;aspect=fixed;pointerEvents=1;shape=mxgraph.aws4.organizations_organizational_unit2;" vertex="1" parent="1">
          <mxGeometry x="290" y="190" width="40" height="40" as="geometry" />
        </mxCell>
        <mxCell id="lkgcbjKjhkeQdIZX4Fdf-21" value="Prod-OU" style="text;html=1;align=center;verticalAlign=middle;whiteSpace=wrap;rounded=0;" vertex="1" parent="1">
          <mxGeometry x="330" y="200" width="60" height="30" as="geometry" />
        </mxCell>
        <mxCell id="lkgcbjKjhkeQdIZX4Fdf-29" value="AWS Organization" style="text;html=1;align=center;verticalAlign=middle;whiteSpace=wrap;rounded=0;fontSize=16;" vertex="1" parent="1">
          <mxGeometry x="350" y="20" width="140" height="30" as="geometry" />
        </mxCell>
        <mxCell id="lkgcbjKjhkeQdIZX4Fdf-30" value="Management Account" style="text;html=1;align=center;verticalAlign=middle;whiteSpace=wrap;rounded=0;fontSize=14;" vertex="1" parent="1">
          <mxGeometry x="220" y="99" width="160" height="30" as="geometry" />
        </mxCell>
        <mxCell id="lkgcbjKjhkeQdIZX4Fdf-32" value="" style="rounded=0;whiteSpace=wrap;html=1;dashed=1;strokeColor=#FF0080;" vertex="1" parent="1">
          <mxGeometry x="580" y="64" width="240" height="366" as="geometry" />
        </mxCell>
        <mxCell id="lkgcbjKjhkeQdIZX4Fdf-35" value="" style="sketch=0;points=[[0,0,0],[0.25,0,0],[0.5,0,0],[0.75,0,0],[1,0,0],[0,1,0],[0.25,1,0],[0.5,1,0],[0.75,1,0],[1,1,0],[0,0.25,0],[0,0.5,0],[0,0.75,0],[1,0.25,0],[1,0.5,0],[1,0.75,0]];outlineConnect=0;fontColor=#232F3E;fillColor=#DD344C;strokeColor=#ffffff;dashed=0;verticalLabelPosition=bottom;verticalAlign=top;align=center;html=1;fontSize=12;fontStyle=0;aspect=fixed;shape=mxgraph.aws4.resourceIcon;resIcon=mxgraph.aws4.single_sign_on;" vertex="1" parent="1">
          <mxGeometry x="580" y="64" width="36" height="36" as="geometry" />
        </mxCell>
        <mxCell id="lkgcbjKjhkeQdIZX4Fdf-36" value="IAM Identity Center&lt;br&gt;(In Management Account)" style="text;html=1;align=center;verticalAlign=middle;whiteSpace=wrap;rounded=0;fontSize=14;" vertex="1" parent="1">
          <mxGeometry x="616" y="70" width="174" height="30" as="geometry" />
        </mxCell>
        <mxCell id="lkgcbjKjhkeQdIZX4Fdf-50" style="edgeStyle=orthogonalEdgeStyle;rounded=0;orthogonalLoop=1;jettySize=auto;html=1;exitX=1;exitY=0.5;exitDx=0;exitDy=0;entryX=1;entryY=0.5;entryDx=0;entryDy=0;" edge="1" parent="1" source="lkgcbjKjhkeQdIZX4Fdf-37" target="lkgcbjKjhkeQdIZX4Fdf-43">
          <mxGeometry relative="1" as="geometry" />
        </mxCell>
        <mxCell id="lkgcbjKjhkeQdIZX4Fdf-58" value="assign" style="edgeLabel;html=1;align=center;verticalAlign=middle;resizable=0;points=[];" vertex="1" connectable="0" parent="lkgcbjKjhkeQdIZX4Fdf-50">
          <mxGeometry x="0.1154" y="1" relative="1" as="geometry">
            <mxPoint as="offset" />
          </mxGeometry>
        </mxCell>
        <mxCell id="lkgcbjKjhkeQdIZX4Fdf-56" style="edgeStyle=orthogonalEdgeStyle;rounded=0;orthogonalLoop=1;jettySize=auto;html=1;exitX=0.75;exitY=1;exitDx=0;exitDy=0;entryX=0.75;entryY=0;entryDx=0;entryDy=0;" edge="1" parent="1" source="lkgcbjKjhkeQdIZX4Fdf-37" target="lkgcbjKjhkeQdIZX4Fdf-54">
          <mxGeometry relative="1" as="geometry" />
        </mxCell>
        <mxCell id="lkgcbjKjhkeQdIZX4Fdf-57" value="assign" style="edgeLabel;html=1;align=center;verticalAlign=middle;resizable=0;points=[];" vertex="1" connectable="0" parent="lkgcbjKjhkeQdIZX4Fdf-56">
          <mxGeometry x="-0.1215" y="2" relative="1" as="geometry">
            <mxPoint as="offset" />
          </mxGeometry>
        </mxCell>
        <mxCell id="lkgcbjKjhkeQdIZX4Fdf-37" value="" style="rounded=0;whiteSpace=wrap;html=1;dashed=1;strokeColor=#007FFF;" vertex="1" parent="1">
          <mxGeometry x="600" y="124" width="180" height="116" as="geometry" />
        </mxCell>
        <mxCell id="lkgcbjKjhkeQdIZX4Fdf-38" value="Group (Developers)" style="text;html=1;align=center;verticalAlign=middle;whiteSpace=wrap;rounded=0;" vertex="1" parent="1">
          <mxGeometry x="630" y="129" width="110" height="30" as="geometry" />
        </mxCell>
        <mxCell id="lkgcbjKjhkeQdIZX4Fdf-40" value="Bob" style="sketch=0;outlineConnect=0;fontColor=#232F3E;gradientColor=none;fillColor=#232F3D;strokeColor=none;dashed=0;verticalLabelPosition=bottom;verticalAlign=top;align=center;html=1;fontSize=12;fontStyle=0;aspect=fixed;pointerEvents=1;shape=mxgraph.aws4.user;" vertex="1" parent="1">
          <mxGeometry x="616" y="170" width="37" height="37" as="geometry" />
        </mxCell>
        <mxCell id="lkgcbjKjhkeQdIZX4Fdf-41" value="Alex" style="sketch=0;outlineConnect=0;fontColor=#232F3E;gradientColor=none;fillColor=#232F3D;strokeColor=none;dashed=0;verticalLabelPosition=bottom;verticalAlign=top;align=center;html=1;fontSize=12;fontStyle=0;aspect=fixed;pointerEvents=1;shape=mxgraph.aws4.user;" vertex="1" parent="1">
          <mxGeometry x="703" y="170" width="37" height="37" as="geometry" />
        </mxCell>
        <mxCell id="lkgcbjKjhkeQdIZX4Fdf-44" style="edgeStyle=orthogonalEdgeStyle;rounded=0;orthogonalLoop=1;jettySize=auto;html=1;entryX=0.5;entryY=1;entryDx=0;entryDy=0;" edge="1" parent="1" source="lkgcbjKjhkeQdIZX4Fdf-42" target="lkgcbjKjhkeQdIZX4Fdf-9">
          <mxGeometry relative="1" as="geometry" />
        </mxCell>
        <mxCell id="lkgcbjKjhkeQdIZX4Fdf-42" value="" style="sketch=0;outlineConnect=0;fontColor=#232F3E;gradientColor=none;fillColor=#DD344C;strokeColor=none;dashed=0;verticalLabelPosition=bottom;verticalAlign=top;align=center;html=1;fontSize=12;fontStyle=0;aspect=fixed;pointerEvents=1;shape=mxgraph.aws4.permissions;" vertex="1" parent="1">
          <mxGeometry x="610" y="370" width="38.15" height="48" as="geometry" />
        </mxCell>
        <mxCell id="lkgcbjKjhkeQdIZX4Fdf-43" value="Permision Set&lt;br&gt;&lt;b&gt;FullAccess&lt;/b&gt;" style="text;html=1;align=center;verticalAlign=middle;whiteSpace=wrap;rounded=0;" vertex="1" parent="1">
          <mxGeometry x="653" y="370" width="110" height="30" as="geometry" />
        </mxCell>
        <mxCell id="lkgcbjKjhkeQdIZX4Fdf-45" value="" style="group" vertex="1" connectable="0" parent="1">
          <mxGeometry x="100" y="250" width="140" height="38" as="geometry" />
        </mxCell>
        <mxCell id="lkgcbjKjhkeQdIZX4Fdf-10" value="" style="sketch=0;outlineConnect=0;fontColor=#232F3E;gradientColor=none;fillColor=#E7157B;strokeColor=none;dashed=0;verticalLabelPosition=bottom;verticalAlign=top;align=center;html=1;fontSize=12;fontStyle=0;aspect=fixed;pointerEvents=1;shape=mxgraph.aws4.organizations_account2;" vertex="1" parent="lkgcbjKjhkeQdIZX4Fdf-45">
          <mxGeometry width="38" height="38" as="geometry" />
        </mxCell>
        <mxCell id="lkgcbjKjhkeQdIZX4Fdf-15" value="Dev Account A" style="text;html=1;align=center;verticalAlign=middle;whiteSpace=wrap;rounded=0;" vertex="1" parent="lkgcbjKjhkeQdIZX4Fdf-45">
          <mxGeometry x="38" y="4" width="102" height="30" as="geometry" />
        </mxCell>
        <mxCell id="lkgcbjKjhkeQdIZX4Fdf-46" value="" style="group" vertex="1" connectable="0" parent="1">
          <mxGeometry x="100" y="300" width="140" height="38" as="geometry" />
        </mxCell>
        <mxCell id="lkgcbjKjhkeQdIZX4Fdf-14" value="" style="sketch=0;outlineConnect=0;fontColor=#232F3E;gradientColor=none;fillColor=#E7157B;strokeColor=none;dashed=0;verticalLabelPosition=bottom;verticalAlign=top;align=center;html=1;fontSize=12;fontStyle=0;aspect=fixed;pointerEvents=1;shape=mxgraph.aws4.organizations_account2;" vertex="1" parent="lkgcbjKjhkeQdIZX4Fdf-46">
          <mxGeometry width="38" height="38" as="geometry" />
        </mxCell>
        <mxCell id="lkgcbjKjhkeQdIZX4Fdf-16" value="Dev Account B" style="text;html=1;align=center;verticalAlign=middle;whiteSpace=wrap;rounded=0;" vertex="1" parent="lkgcbjKjhkeQdIZX4Fdf-46">
          <mxGeometry x="38" y="4" width="102" height="30" as="geometry" />
        </mxCell>
        <mxCell id="lkgcbjKjhkeQdIZX4Fdf-48" value="" style="group" vertex="1" connectable="0" parent="1">
          <mxGeometry x="320" y="250" width="140" height="38" as="geometry" />
        </mxCell>
        <mxCell id="lkgcbjKjhkeQdIZX4Fdf-20" value="" style="sketch=0;outlineConnect=0;fontColor=#232F3E;gradientColor=none;fillColor=#E7157B;strokeColor=none;dashed=0;verticalLabelPosition=bottom;verticalAlign=top;align=center;html=1;fontSize=12;fontStyle=0;aspect=fixed;pointerEvents=1;shape=mxgraph.aws4.organizations_account2;" vertex="1" parent="lkgcbjKjhkeQdIZX4Fdf-48">
          <mxGeometry width="38" height="38" as="geometry" />
        </mxCell>
        <mxCell id="lkgcbjKjhkeQdIZX4Fdf-23" value="Prod Account A" style="text;html=1;align=center;verticalAlign=middle;whiteSpace=wrap;rounded=0;" vertex="1" parent="lkgcbjKjhkeQdIZX4Fdf-48">
          <mxGeometry x="38" y="4" width="102" height="30" as="geometry" />
        </mxCell>
        <mxCell id="lkgcbjKjhkeQdIZX4Fdf-49" value="" style="group" vertex="1" connectable="0" parent="1">
          <mxGeometry x="320" y="300" width="140" height="38" as="geometry" />
        </mxCell>
        <mxCell id="lkgcbjKjhkeQdIZX4Fdf-22" value="" style="sketch=0;outlineConnect=0;fontColor=#232F3E;gradientColor=none;fillColor=#E7157B;strokeColor=none;dashed=0;verticalLabelPosition=bottom;verticalAlign=top;align=center;html=1;fontSize=12;fontStyle=0;aspect=fixed;pointerEvents=1;shape=mxgraph.aws4.organizations_account2;" vertex="1" parent="lkgcbjKjhkeQdIZX4Fdf-49">
          <mxGeometry width="38" height="38" as="geometry" />
        </mxCell>
        <mxCell id="lkgcbjKjhkeQdIZX4Fdf-24" value="Prod Account B" style="text;html=1;align=center;verticalAlign=middle;whiteSpace=wrap;rounded=0;" vertex="1" parent="lkgcbjKjhkeQdIZX4Fdf-49">
          <mxGeometry x="38" y="4" width="102" height="30" as="geometry" />
        </mxCell>
        <mxCell id="lkgcbjKjhkeQdIZX4Fdf-52" style="edgeStyle=orthogonalEdgeStyle;rounded=0;orthogonalLoop=1;jettySize=auto;html=1;entryX=1;entryY=0.5;entryDx=0;entryDy=0;" edge="1" parent="1" source="lkgcbjKjhkeQdIZX4Fdf-51" target="lkgcbjKjhkeQdIZX4Fdf-18">
          <mxGeometry relative="1" as="geometry" />
        </mxCell>
        <mxCell id="lkgcbjKjhkeQdIZX4Fdf-51" value="" style="sketch=0;outlineConnect=0;fontColor=#232F3E;gradientColor=none;fillColor=#DD344C;strokeColor=none;dashed=0;verticalLabelPosition=bottom;verticalAlign=top;align=center;html=1;fontSize=12;fontStyle=0;aspect=fixed;pointerEvents=1;shape=mxgraph.aws4.permissions;" vertex="1" parent="1">
          <mxGeometry x="610" y="300" width="38.15" height="48" as="geometry" />
        </mxCell>
        <mxCell id="lkgcbjKjhkeQdIZX4Fdf-54" value="Permision Set&lt;br&gt;&lt;b&gt;ReadOnlyAccess&lt;/b&gt;" style="text;html=1;align=center;verticalAlign=middle;whiteSpace=wrap;rounded=0;" vertex="1" parent="1">
          <mxGeometry x="652.15" y="308" width="110" height="30" as="geometry" />
        </mxCell>
      </root>
    </mxGraphModel>
  </diagram>
</mxfile>
